<mxfile host="drawio-plugin" modified="2023-09-30T12:31:54.798Z" agent="5.0 (Macintosh; Intel Mac OS X 10_15_7) AppleWebKit/537.36 (KHTML, like Gecko) Chrome/111.0.0.0 Safari/537.36" etag="NgjVxH742AuUebEd1aDe" version="20.5.3" type="embed"><diagram name="test" id="TPu_xz8zFZaf7eemAzWx"><mxGraphModel dx="706" dy="464" grid="1" gridSize="10" guides="1" tooltips="1" connect="1" arrows="1" fold="1" page="1" pageScale="1" pageWidth="827" pageHeight="1169" math="0" shadow="0"><root><mxCell id="0"/><mxCell id="1" parent="0"/></root></mxGraphModel></diagram></mxfile>